<?xml version="1.0" encoding="UTF-8"?>
<svg version="1.1" xmlns="http://www.w3.org/2000/svg" width="200" height="201">
<path d="M0 0 C66 0 132 0 200 0 C200 66.33 200 132.66 200 201 C134 201 68 201 0 201 C0 134.67 0 68.34 0 0 Z " fill="#FDFEFE" transform="translate(0,0)"/>
<path d="M0 0 C23.36377448 -0.8393088 43.67152907 0.26851963 62.25 16.25 C70.80344054 24.55602315 77.35074956 33.6690094 83.125 44.0625 C84.40968254 46.33490329 85.69485444 48.60702998 86.98046875 50.87890625 C87.30590164 51.45762482 87.63133453 52.03634338 87.96662903 52.63259888 C90.37359254 56.91157136 92.82593301 61.16231852 95.30078125 65.40234375 C96.00050387 66.60342516 96.70021113 67.80451553 97.39990234 69.00561523 C98.73980583 71.30501338 100.08314947 73.60229167 101.42822266 75.89868164 C102.02812012 76.9324292 102.62801758 77.96617676 103.24609375 79.03125 C103.77904053 79.94455078 104.3119873 80.85785156 104.86108398 81.79882812 C106 84 106 84 106 86 C101.09283167 86.10002068 96.18627638 86.17200237 91.27832031 86.21972656 C89.61415246 86.23965287 87.95005286 86.26680428 86.28613281 86.30175781 C68.19513237 86.67185048 53.98056071 82.50411983 40.48046875 69.8203125 C35.92549006 64.64126587 32.78203688 58.68002633 29.47363281 52.65820312 C26.61560095 47.50276063 23.63905387 42.41476079 20.6875 37.3125 C20.05553711 36.21365479 19.42357422 35.11480957 18.77246094 33.98266602 C15.6004678 28.47038054 12.40351126 22.97541416 9.1484375 17.51171875 C8.54427002 16.49746826 7.94010254 15.48321777 7.31762695 14.43823242 C6.16907331 12.51545553 5.01671266 10.59494636 3.86010742 8.67700195 C3.35068604 7.82452881 2.84126465 6.97205566 2.31640625 6.09375 C1.86724854 5.34802734 1.41809082 4.60230469 0.95532227 3.83398438 C0 2 0 2 0 0 Z " fill="#01B8EE" transform="translate(70,23)"/>
<path d="M0 0 C3.40271297 1.13423766 3.57397919 1.48790918 5.19921875 4.47265625 C5.80068726 5.56368652 5.80068726 5.56368652 6.41430664 6.67675781 C6.83446045 7.46405273 7.25461426 8.25134766 7.6875 9.0625 C8.12376709 9.86655273 8.56003418 10.67060547 9.00952148 11.49902344 C10.35366461 13.99218031 11.67976227 16.49411187 13 19 C13.40573242 19.76618652 13.81146484 20.53237305 14.22949219 21.32177734 C15.35371671 23.45799178 16.46208027 25.60144004 17.5625 27.75 C17.89660889 28.39203369 18.23071777 29.03406738 18.57495117 29.69555664 C21.80466594 36.13206836 22.19851257 42.08867045 22.25 49.1875 C22.270625 49.87908203 22.29125 50.57066406 22.3125 51.28320312 C22.39255913 62.22128184 18.39116419 70.85168256 12.75 80 C11.48813945 82.10121796 10.22913244 84.20415165 8.97265625 86.30859375 C8.32055176 87.39769043 7.66844727 88.48678711 6.99658203 89.60888672 C3.60942546 95.36183423 0.40402307 101.21297696 -2.8125 107.0625 C-8.01662573 116.49794885 -13.33451095 125.83388357 -19 135 C-33.37553647 118.21224199 -38.68586507 97.43765077 -37.27783203 75.78076172 C-35.31271729 56.11234615 -22.13241854 38.36394229 -12.3984375 21.80859375 C-8.16392419 14.59568747 -4.06360648 7.31019156 0 0 Z " fill="#02B8EE" transform="translate(60,38)"/>
<path d="M0 0 C0.7222023 -0.00014603 1.4444046 -0.00029205 2.18849182 -0.0004425 C4.57466642 0.00025394 6.96076287 0.00803379 9.34692383 0.01586914 C11.00173398 0.01773427 12.65654469 0.01915773 14.31135559 0.02015686 C18.66626511 0.02397454 23.02114126 0.03379844 27.3760376 0.04486084 C31.82010446 0.05509106 36.26417671 0.05965794 40.70825195 0.06469727 C49.4276683 0.07542137 58.14705754 0.09248882 66.86645508 0.11352539 C60.71299001 18.99732645 47.44688486 34.05569272 29.86645508 43.11352539 C17.43288857 48.71577605 6.5166537 50.41413146 -7.01245117 50.30883789 C-8.43448181 50.30510029 -9.85651505 50.30225686 -11.27854919 50.30026245 C-14.99227205 50.29268471 -18.70583446 50.27308778 -22.41949463 50.25085449 C-26.22064037 50.23026865 -30.02181244 50.2212337 -33.82299805 50.21118164 C-41.25991955 50.18983534 -48.69670962 50.1557717 -56.13354492 50.11352539 C-55.01894564 47.87130138 -53.90294439 45.62979369 -52.78613281 43.38867188 C-52.47272194 42.75782433 -52.15931107 42.12697678 -51.83640289 41.47701263 C-43.30758026 24.37648443 -33.76581288 9.46378925 -15.00854492 2.61352539 C-13.38947209 2.09465338 -11.76527493 1.5911049 -10.13354492 1.11352539 C-6.5763163 -0.07221748 -3.75577948 -0.00637654 0 0 Z " fill="#01B8EE" transform="translate(117.133544921875,122.886474609375)"/>
<path d="M0 0 C1.98 0 3.96 0 6 0 C5.34 1.32 4.68 2.64 4 4 C2.68 3.34 1.36 2.68 0 2 C0 1.34 0 0.68 0 0 Z " fill="#F1F1F1" transform="translate(177,0)"/>
</svg>
